# xmcd
#
# Track frame offsets:
#	150
#	14207
#	26983
#	45699
#	62376
#	75336
#	86623
#	104753
#	119680
#	135334
#	149607
#	162931
#	177063
#	193840
#	213048
#
# Disc length: 3074 seconds
#
# Revision: 0
# Processed by: cddbd v1.5.2PL0 Copyright (c) Steve Scherf et al.
# Submitted via: EasyCDDAExtractor 10.2.0.1
#
DISCID=d30c000f
DTITLE=Anne Murray - All Of Me [Disc 2]
DYEAR=2005
DGENRE=Country
TTITLE0=Danny's Song
TTITLE1=A Love Song
TTITLE2=You Won't See Me
TTITLE3=You Needed Me
TTITLE4=I Just Fall In Love Again
TTITLE5=Daydream Believer
TTITLE6=Broken Hearted Me
TTITLE7=Could I Have This Dance
TTITLE8=Shadows In The Moonlight
TTITLE9=A Little Good News
TTITLE10=Just Another Woman In Love
TTITLE11=Another Sleepless Night
TTITLE12=Time Don't Run Out On Me
TTITLE13=Now And Forever (You And Me)
TTITLE14=Nobody Loves Me Like You Do
EXTD=
EXTT0=
EXTT1=
EXTT2=
EXTT3=
EXTT4=
EXTT5=
EXTT6=
EXTT7=
EXTT8=
EXTT9=
EXTT10=
EXTT11=
EXTT12=
EXTT13=
EXTT14=
PLAYORDER=
